<?xml version="1.0" encoding="utf-8"?>
<!-- Generator: Adobe Illustrator 16.0.0, SVG Export Plug-In . SVG Version: 6.00 Build 0)  -->
<!DOCTYPE svg PUBLIC "-//W3C//DTD SVG 1.1//EN" "http://www.w3.org/Graphics/SVG/1.1/DTD/svg11.dtd">
<svg version="1.1" id="layer" xmlns="http://www.w3.org/2000/svg" xmlns:xlink="http://www.w3.org/1999/xlink" x="0px" y="0px"
	 width="568px" height="144px" viewBox="38.5 158.5 568 144" enable-background="new 38.5 158.5 568 144" xml:space="preserve">
<path fill="#10112B" d="M236.129,203.423h0.172c1.03,0,1.632,0.773,1.632,1.804v46.294c0,0.773-0.602,1.632-1.632,1.632
	c-0.773,0-1.632-0.601-1.632-1.632v-46.466C234.669,204.196,235.27,203.423,236.129,203.423z M192.067,205.828h30.319
	c1.03,0,1.632,1.031,1.632,1.804s-0.602,1.632-1.632,1.632h-28.688v19.325h25.939c0.773,0,1.632,0.602,1.632,1.632
	c0,0.773-0.601,1.632-1.632,1.632h-25.681v19.927c-0.172,1.031-1.031,1.804-1.976,1.804c-1.03,0-1.804-0.773-1.804-1.804v-44.062
	h0.172C190.264,206.601,191.123,205.828,192.067,205.828z M280.104,220.172c0-1.031-0.773-1.632-1.632-1.632
	c-1.03,0-1.632,0.773-1.632,1.632v19.325c0,6.613-5.411,11.767-12.024,11.595c-7.043,0-11.08-4.552-11.08-11.767v-19.153
	c0-1.031-0.773-1.632-1.632-1.632c-0.773,0-1.632,0.773-1.632,1.632v19.754c0,8.16,5.239,14.172,13.829,14.172
	c5.239,0.172,10.221-2.577,12.625-7.215v4.982c0,1.03,0.773,1.632,1.632,1.632c1.031,0,1.632-0.773,1.632-1.632h-0.172v-31.693
	H280.104z M310.595,220.43c0,0.773-0.773,1.374-1.632,1.374h-11.08v22.16c0,4.981,2.834,6.785,7.043,6.785
	c1.375,0,2.834-0.172,4.037-0.601c0.773,0,1.374,0.601,1.374,1.374c0,0.601-0.429,1.203-1.031,1.374
	c-1.632,0.602-3.436,0.773-4.981,0.773c-5.239,0-9.62-3.006-9.62-9.362v-22.503h-3.779c-0.773,0-1.632-0.773-1.632-1.632
	c0-0.773,0.773-1.375,1.632-1.375h3.779v-9.534c0-0.773,0.601-1.632,1.374-1.632h0.172c0.773,0,1.632,0.773,1.632,1.632v9.534h11.08
	C309.822,218.797,310.595,219.571,310.595,220.43z M336.362,221.804c0.773,0,1.632-0.601,1.632-1.374
	c0-0.773-0.773-1.632-1.632-1.632h-11.08v-9.534c0-0.773-0.773-1.632-1.632-1.632h-0.172c-0.773,0-1.374,0.773-1.374,1.632v9.534
	h-3.779c-0.773,0-1.632,0.602-1.632,1.375s0.773,1.632,1.632,1.632h3.779v22.503c0,6.356,4.38,9.362,9.62,9.362
	c1.632,0,3.436-0.172,4.981-0.773c0.601-0.171,1.031-0.773,1.031-1.374c0-0.773-0.602-1.374-1.375-1.374
	c-1.202,0.429-2.577,0.601-4.037,0.601c-4.208,0-7.043-1.804-7.043-6.785v-22.16H336.362L336.362,221.804z M344.006,235.976
	c0-10.135,7.042-18.123,16.491-18.123c9.877,0,16.061,7.988,16.061,18.123c0,0.773-0.773,1.632-1.632,1.632h-27.313
	c0.602,8.589,6.872,13.57,13.657,13.57c4.208,0,8.417-1.804,11.251-4.81c0.172-0.172,0.601-0.43,1.031-0.43
	c0.773,0,1.632,0.773,1.632,1.632c0,0.43-0.172,0.773-0.601,1.203c-3.436,3.779-8.417,5.754-13.485,5.583
	c-9.276,0-17.092-7.215-17.092-18.123V235.976z M389.613,228.761c2.233-5.754,7.645-9.963,13.828-10.393
	c1.031,0,1.804,0.773,1.804,1.976c0,0.773-0.601,1.804-1.632,1.804h-0.172c-7.472,0.773-13.828,6.184-13.828,17.35v12.797
	c-0.171,1.031-0.773,1.632-1.804,1.632c-0.773,0-1.632-0.773-1.632-1.632v-31.951c0.172-1.031,0.773-1.632,1.804-1.632
	c0.773,0,1.632,0.773,1.632,1.632V228.761z M458.239,216.564c-2.405,0-4.38,1.632-4.981,3.951l-5.841,18.552l-5.84-18.552
	c-0.602-2.405-2.835-4.209-5.411-4.209h-0.602c-2.577,0-4.81,1.632-5.411,4.209l-5.841,18.38l-5.582-18.552
	c-0.602-2.233-2.577-3.951-4.982-3.951h-0.171c-2.577,0-4.639,2.233-4.639,4.81c0,0.773,0.172,1.632,0.43,2.405l0,0l9.019,25.767
	c0.602,2.577,2.834,4.38,5.583,4.552h0.429c2.577,0,4.811-1.804,5.583-4.38l5.841-18.38l5.84,18.38
	c0.602,2.577,3.007,4.38,5.583,4.38h0.43c2.834,0,5.239-1.804,5.841-4.552l9.019-25.938c0.171-0.601,0.429-1.374,0.429-1.976v-0.172
	C462.877,218.626,460.902,216.564,458.239,216.564z M472.325,218.368c3.779-1.203,7.645-1.976,11.681-1.804
	c5.583,0,9.62,1.632,12.626,4.208c2.835,3.178,4.209,7.387,4.037,11.595v16.319c0,2.834-2.233,4.982-4.981,4.982
	c-2.577,0-4.811-1.804-4.982-4.381c-2.834,3.006-6.871,4.81-11.079,4.552c-6.613,0-12.454-3.951-12.454-11.166
	c0-7.988,6.012-11.767,14.688-11.767c3.006,0,6.012,0.43,8.846,1.375v-0.601c0-4.38-2.576-6.614-7.815-6.614
	c-2.405,0-4.81,0.172-7.215,1.031c-0.43,0.172-1.03,0.172-1.374,0.172c-2.405,0.172-4.381-1.632-4.381-3.951
	C469.748,220.601,470.693,218.969,472.325,218.368z M531.589,220c0.602-2.233,2.577-3.607,4.81-3.607
	c2.835,0,4.982,2.233,4.982,4.81v0.171c0,0.773-0.172,1.632-0.602,2.405l-10.822,25.767c-1.03,2.577-3.436,4.208-6.012,4.38h-0.602
	c-2.835-0.172-4.981-1.975-5.841-4.552l-11.251-25.767c-0.43-0.773-0.602-1.632-0.602-2.405c0.172-2.834,2.404-4.81,4.981-4.81
	c2.405,0,4.38,1.632,4.981,3.779l7.816,20.957L531.589,220z M545.503,236.749c0.43,9.963,9.019,17.779,19.067,17.178
	c4.639,0,9.019-1.374,12.626-4.38c1.03-0.773,1.374-1.804,1.374-3.006v-0.172c0-2.233-1.804-3.951-4.036-3.951
	c-0.773,0-1.804,0.172-2.405,0.773c-2.233,1.632-4.81,2.577-7.473,2.405c-4.38,0.172-8.245-2.834-8.847-7.215h20.7
	c2.576-0.172,4.638-2.405,4.38-4.981v-0.773c0-9.019-7.816-16.577-17.436-16.319c-10.65,0-18.123,8.589-18.123,18.982v1.46H545.503z
	"/>
<path fill="#FFFFFF" d="M347.356,234.344c0.601-7.559,6.012-13.399,12.883-13.399c7.816,0,12.024,6.356,12.454,13.399H347.356z
	 M490.791,240.356c0,3.951-3.436,6.356-8.245,6.184c-3.178,0-5.583-1.632-5.583-4.38v-0.172c0-3.006,2.835-4.981,7.215-4.981
	c2.233,0,4.639,0.601,6.613,1.374V240.356z M563.54,224.552c-4.209,0-7.043,3.006-7.816,7.816h15.46
	C570.583,227.73,567.748,224.552,563.54,224.552z"/>
<path fill="#EBA12A" d="M138.301,180.491c45.178-6.785,16.233,31.693,2.233,42.516c9.62,7.386,19.497,17.779,23.706,29.546
	c7.816,21.558-11.423,24.736-25.938,19.325c-15.89-5.583-29.89-17.521-39.166-31.521c-2.577,0-5.411-0.43-8.073-1.203
	c5.239,14.773,7.472,29.89,6.012,42.258c0-24.908-11.853-49.644-28.945-70.258c-6.012-7.215,0.172-12.54,5.583-5.583
	c3.693,5.068,7.043,10.307,10.049,15.718C89.687,201.019,118.546,183.325,138.301,180.491z M131.859,217.166
	c8.847-5.411,35.73-34.27,10.65-31.693c-14.43,1.632-31.951,14.944-39.166,23.534C113.393,207.804,123.613,212.184,131.859,217.166z
	 M106.951,239.583c8.073,9.018,19.067,17.779,30.92,20.957c6.871,1.804,14.43,1.031,11.681-8.761
	c-2.834-9.019-10.049-16.92-17.092-22.933c-1.975,1.374-4.208,2.834-6.441,3.779C120.006,235.976,113.564,238.38,106.951,239.583z"
	/>
<path fill="#FFFFFF" d="M103.086,215.362c6.871-0.601,14.258,3.006,19.926,6.614c-5.411,2.577-11.423,4.208-17.693,4.552
	C96.129,226.613,94.239,216.221,103.086,215.362z"/>
</svg>
